Coordinates
version=1
nRows=13
nColumns=63
inDegrees=yes

Units are S.I. units (second, meters, Newtons, ...)
If the header above contains a line with 'inDegrees', this indicates whether rotational values are in degrees (yes) or radians (no).

endheader
time	pelvis_tilt	pelvis_list	pelvis_rotation	pelvis_tx	pelvis_ty	pelvis_tz	hip_flexion_r	hip_adduction_r	hip_rotation_r	knee_angle_r	knee_angle_r_beta	ankle_angle_r	subtalar_angle_r	mtp_angle_r	hip_flexion_l	hip_adduction_l	hip_rotation_l	knee_angle_l	knee_angle_l_beta	ankle_angle_l	subtalar_angle_l	mtp_angle_l	L5_S1_Flex_Ext	L5_S1_Lat_Bending	L5_S1_axial_rotation	L4_L5_Flex_Ext	L4_L5_Lat_Bending	L4_L5_axial_rotation	L3_L4_Flex_Ext	L3_L4_Lat_Bending	L3_L4_axial_rotation	L2_L3_Flex_Ext	L2_L3_Lat_Bending	L2_L3_axial_rotation	L1_L2_Flex_Ext	L1_L2_Lat_Bending	L1_L2_axial_rotation	L1_T12_Flex_Ext	L1_T12_Lat_Bending	L1_T12_axial_rotation	Abs_r3	Abs_r2	Abs_r1	Abs_t1	Abs_t2	neck_flexion	neck_bending	neck_rotation	arm_flex_r	arm_add_r	arm_rot_r	elbow_flex_r	pro_sup_r	wrist_flex_r	wrist_dev_r	arm_flex_l	arm_add_l	arm_rot_l	elbow_flex_l	pro_sup_l	wrist_flex_l	wrist_dev_l
0.000000	4.702240	-5.064620	86.819807	0.263745	0.718675	0.607347	13.628184	4.583679	2.012053	19.426842	0.339062	33.659843	-8.603717	0.000000	3.928940	-5.761007	-14.969058	6.622729	0.115588	37.427791	10.841637	0.000000	0.143327	0.619899	1.077442	0.266173	0.824466	1.144782	0.235472	1.507223	1.144782	0.163809	1.507223	0.942762	0.133094	1.264099	0.875421	0.081897	0.960224	0.808081	1.023772	7.012426	5.992408	0.000000	0.000000	27.453012	6.539174	6.533709	12.884121	-10.955047	43.963104	42.516766	87.339161	-0.275270	11.989728	18.322292	-0.065615	61.281563	32.820174	87.988595	3.653827	10.778425
0.016949	4.957157	-4.895575	87.353739	0.262220	0.719125	0.606623	13.124126	4.666640	2.123772	18.931474	0.330417	33.123276	-9.249860	0.000000	3.765478	-5.840353	-14.530657	6.669506	0.116405	37.283985	10.981249	0.000000	0.122074	0.673294	0.799422	0.226704	0.895481	0.849385	0.200556	1.637047	0.849385	0.139519	1.637047	0.699494	0.113358	1.372981	0.649530	0.069753	1.042932	0.599566	0.871966	7.616436	4.446143	0.000000	0.000000	27.474098	7.036931	8.322545	12.955142	-10.653554	45.150059	41.834212	86.979674	-0.883246	11.593651	18.414512	-0.028214	62.003065	32.084008	87.903761	2.155570	9.290738
0.033898	5.189687	-4.745140	87.919013	0.260754	0.719547	0.605975	12.645979	4.729839	2.028698	18.427279	0.321617	32.681938	-9.644231	0.000000	3.610876	-5.910903	-13.961843	6.647379	0.116019	37.077270	10.978552	0.000000	0.105059	0.721511	0.546608	0.195104	0.959610	0.580771	0.172601	1.754282	0.580771	0.120072	1.754282	0.478282	0.097557	1.471305	0.444119	0.060031	1.117620	0.409956	0.750424	8.161876	3.040069	0.000000	0.000000	27.468833	7.348582	9.793106	13.093703	-10.442011	46.106164	41.349685	86.725361	-1.206679	11.301054	18.499456	-0.062854	62.447391	31.638230	87.862463	0.962384	8.175123
0.050847	5.400324	-4.610966	88.505012	0.259357	0.719940	0.605395	12.192914	4.775357	1.755822	17.919585	0.312756	32.328426	-9.815749	0.000000	3.462385	-5.972754	-13.278521	6.562819	0.114543	36.816656	10.844511	0.000000	0.091858	0.764713	0.318577	0.170589	1.017069	0.338488	0.150913	1.859324	0.338488	0.104984	1.859324	0.278755	0.085299	1.559404	0.258844	0.052488	1.184541	0.238933	0.656131	8.650592	1.771831	0.000000	0.000000	27.440746	7.496034	10.969026	13.291134	-10.312463	46.854905	41.043039	86.566205	-1.286148	11.095076	18.577696	-0.159563	62.642690	31.451362	87.857284	0.045838	7.393984
0.067797	5.589561	-4.490705	89.101120	0.258036	0.720303	0.604878	11.764105	4.805279	1.334137	17.413717	0.303927	32.055335	-9.793336	0.000000	3.317259	-6.026002	-12.496597	6.422300	0.112090	36.511151	10.590089	0.000000	0.082049	0.803065	0.114906	0.152374	1.068076	0.122087	0.134799	1.952572	0.122087	0.093774	1.952572	0.100543	0.076191	1.637610	0.093361	0.046883	1.243947	0.086179	0.586071	9.084430	0.639072	0.000000	0.000000	27.393362	7.501197	11.873938	13.538769	-10.256951	47.419769	40.894129	86.492191	-1.162228	10.958859	18.649802	-0.308373	62.617113	31.491929	87.880805	-0.622498	6.909727
0.084746	5.757894	-4.382008	89.696719	0.256799	0.720638	0.604414	11.358724	4.821685	0.792634	16.915004	0.295223	31.855263	-9.605915	0.000000	3.172749	-6.070744	-11.631976	6.232292	0.108774	36.169766	10.226253	0.000000	0.075211	0.836728	-0.064830	0.139675	1.112849	-0.068882	0.123565	2.034421	-0.068882	0.085959	2.034421	-0.056726	0.069841	1.706257	-0.052674	0.042976	1.296092	-0.048622	0.537228	9.465239	-0.360564	0.000000	0.000000	27.330209	7.385978	12.531474	13.827941	-10.267520	47.824243	40.882810	86.493302	-0.875499	10.875541	18.716346	-0.499314	62.398810	31.728456	87.925609	-1.071058	6.684757
0.101695	5.905816	-4.282527	90.281192	0.255654	0.720944	0.603996	10.975945	4.826658	0.160306	16.428773	0.286736	31.720806	-9.282405	0.000000	3.026108	-6.107074	-10.700565	5.999267	0.104707	35.801508	9.763967	0.000000	0.070922	0.865867	-0.221054	0.131708	1.151604	-0.234869	0.116517	2.105270	-0.234869	0.081056	2.105270	-0.193422	0.065858	1.765677	-0.179606	0.040525	1.341229	-0.165790	0.506586	9.794865	-1.229434	0.000000	0.000000	27.254814	7.172287	12.965267	14.149981	-10.336212	48.091814	40.988936	86.559522	-0.466537	10.828262	18.777899	-0.722417	62.015933	32.129467	87.984276	-1.328271	6.681478
0.118644	6.033821	-4.189914	90.843923	0.254610	0.721221	0.603619	10.614940	4.822282	-0.533856	15.960350	0.278561	31.644560	-8.851729	0.000000	2.874589	-6.135091	-9.718268	5.729697	0.100002	35.415388	9.214195	0.000000	0.068758	0.890645	-0.354189	0.127690	1.184558	-0.376326	0.112962	2.165514	-0.376326	0.078583	2.165514	-0.309915	0.063848	1.816203	-0.287778	0.039288	1.379609	-0.265642	0.491129	10.075155	-1.969892	0.000000	0.000000	27.170703	6.882032	13.198950	14.496223	-10.455071	48.245968	41.192362	86.680835	0.024079	10.800164	18.835031	-0.967712	61.496631	32.663487	88.049389	-1.422569	6.862296
0.135593	6.142404	-4.101819	91.374294	0.253674	0.721470	0.603273	10.274883	4.810638	-1.260859	15.515062	0.270789	31.619123	-8.342808	0.000000	2.715445	-6.154889	-8.700991	5.430054	0.094772	35.020414	8.587902	0.000000	0.068297	0.911225	-0.464659	0.126835	1.211929	-0.493700	0.112206	2.215551	-0.493700	0.078057	2.215551	-0.406577	0.063421	1.858169	-0.377536	0.039025	1.411487	-0.348494	0.487842	10.307955	-2.584295	0.000000	0.000000	27.081403	6.537122	13.256155	14.857999	-10.616138	48.310192	41.472943	86.847226	0.555772	10.774385	18.888315	-1.225229	60.869056	33.299040	88.113529	-1.382383	7.189617
0.152542	6.232058	-4.015894	91.861689	0.252855	0.721690	0.602951	9.954947	4.793810	-1.991711	15.098238	0.263514	31.637090	-7.784564	0.000000	2.545927	-6.166567	-7.664639	5.106809	0.089131	34.625595	7.896054	0.000000	0.069119	0.927769	-0.552888	0.128360	1.233933	-0.587444	0.113555	2.255779	-0.587444	0.078996	2.255779	-0.483777	0.064184	1.891907	-0.449222	0.039494	1.437115	-0.414666	0.493708	10.495113	-3.075000	0.000000	0.000000	26.990442	6.159465	13.160516	15.226642	-10.811459	48.307974	41.810534	87.048676	1.087964	10.734066	18.938320	-1.484999	60.161356	34.004650	88.169278	-1.236145	7.625844
0.169492	6.303279	-3.929791	92.295490	0.252161	0.721881	0.602647	9.654304	4.773879	-2.697421	14.715203	0.256829	31.691059	-7.205917	0.000000	2.363288	-6.170218	-6.625119	4.766433	0.083190	34.239940	7.149614	0.000000	0.070799	0.940443	-0.619300	0.131481	1.250789	-0.658006	0.116316	2.286592	-0.658006	0.080916	2.286592	-0.541888	0.065744	1.917751	-0.503181	0.040455	1.456746	-0.464475	0.505712	10.638476	-3.444362	0.000000	0.000000	26.901345	5.770969	12.935664	15.593484	-11.033075	48.262799	42.184989	87.275172	1.580078	10.662346	18.985619	-1.737052	59.401683	34.748842	88.209217	-1.012286	8.133383
0.186441	6.345806	-3.852974	92.600497	0.251722	0.722020	0.602299	9.390273	4.761444	-3.213658	14.371410	0.250828	31.833329	-6.685376	0.000000	2.158772	-6.155261	-5.576618	4.408352	0.076940	33.875734	6.263442	0.000000	0.074099	0.947032	-0.655980	0.137609	1.259553	-0.696978	0.121737	2.302614	-0.696978	0.084687	2.302614	-0.573982	0.068808	1.931188	-0.532983	0.042340	1.466953	-0.491985	0.529280	10.713019	-3.648362	0.000000	0.000000	26.838755	5.524835	12.662603	16.004780	-11.255372	48.444614	42.466033	87.505535	1.706650	10.341203	19.051217	-1.976281	58.653792	35.432202	88.246459	-0.869229	8.513654
0.203390	6.366279	-3.747924	92.824055	0.251418	0.722130	0.601992	9.132378	4.743818	-3.630554	14.114592	0.246346	31.943988	-6.270796	0.000000	1.913994	-6.129020	-4.575148	4.056222	0.070794	33.563085	5.384552	0.000000	0.074279	0.949214	-0.669714	0.137944	1.262454	-0.711571	0.122034	2.307918	-0.711571	0.084894	2.307918	-0.586000	0.068976	1.935636	-0.544143	0.042443	1.470332	-0.502285	0.530571	10.737694	-3.724748	0.000000	0.000000	26.787889	5.286953	12.249652	16.402356	-11.500938	48.650921	42.744348	87.759918	1.701399	9.954624	19.103794	-2.162991	57.880740	36.074489	88.251785	-0.642774	8.962158
